HIERARCHY
ROOT Hips
{
	OFFSET	0.00	0.00	0.00
	CHANNELS 6 Xposition Yposition Zposition Zrotation Xrotation Yrotation
	JOINT LeftUpLeg
	{
		OFFSET	 0.126116	-0.014019	-0.065224
		CHANNELS 3 Zrotation Xrotation Yrotation
		JOINT LeftLeg
		{
			OFFSET	 0.000000	 0.000000	 0.569914
			CHANNELS 3 Zrotation Xrotation Yrotation
			JOINT LeftFoot
			{
				OFFSET	 0.000000	 0.000000	 0.544423
				CHANNELS 3 Zrotation Xrotation Yrotation
				JOINT LeftToeBase
				{
					OFFSET	 0.000000	 0.000000	 0.207117
					CHANNELS 3 Zrotation Xrotation Yrotation
					End Site
					{
						OFFSET	 0.000000	 0.000000	 0.207117
					}
				}
			}
		}
	}
	JOINT RightUpLeg
	{
		OFFSET	-0.124023	-0.008373	-0.065224
		CHANNELS 3 Zrotation Xrotation Yrotation
		JOINT RightLeg
		{
			OFFSET	 0.000000	 0.000000	 0.570047
			CHANNELS 3 Zrotation Xrotation Yrotation
			JOINT RightFoot
			{
				OFFSET	 0.000000	 0.000000	 0.544354
				CHANNELS 3 Zrotation Xrotation Yrotation
				JOINT RightToeBase
				{
					OFFSET	 0.000000	 0.000000	 0.207540
					CHANNELS 3 Zrotation Xrotation Yrotation
					End Site
					{
						OFFSET	 0.000000	 0.000000	 0.207540
					}
				}
			}
		}
	}
	JOINT Spine
	{
		OFFSET	 0.000184	-0.007763	 0.117403
		CHANNELS 3 Zrotation Xrotation Yrotation
		JOINT Spine1
		{
			OFFSET	 0.000000	 0.000000	 0.137269
			CHANNELS 3 Zrotation Xrotation Yrotation
			JOINT Spine2
			{
				OFFSET	 0.000000	 0.000000	 0.156879
				CHANNELS 3 Zrotation Xrotation Yrotation
				JOINT LeftShoulder
				{
					OFFSET	 0.080501	-0.002496	 0.160144
					CHANNELS 3 Zrotation Xrotation Yrotation
					JOINT LeftArm
					{
						OFFSET	 0.000000	 0.000000	 0.164363
						CHANNELS 3 Zrotation Xrotation Yrotation
						JOINT LeftForeArm
						{
							OFFSET	 0.000000	 0.000000	 0.364576
							CHANNELS 3 Zrotation Xrotation Yrotation
							JOINT LeftHand
							{
								OFFSET	 0.000000	 0.000000	 0.360812
								CHANNELS 3 Zrotation Xrotation Yrotation
								JOINT LeftHandIndex1
								{
									OFFSET	 0.000000	 0.000000	 0.086006
									CHANNELS 3 Zrotation Xrotation Yrotation
									JOINT LeftHandIndex2
									{
										OFFSET	 0.000000	 0.000000	 0.047236
										CHANNELS 3 Zrotation Xrotation Yrotation
										JOINT LeftHandIndex3
										{
											OFFSET	-0.004284	-0.000551	 0.038166
											CHANNELS 3 Zrotation Xrotation Yrotation
											End Site
											{
												OFFSET	-0.004284	-0.000551	 0.038166
											}
										}
									}
								}
							}
						}
					}
				}
				JOINT Neck
				{
					OFFSET	 0.000000	 0.000000	 0.176489
					CHANNELS 3 Zrotation Xrotation Yrotation
					JOINT Head
					{
						OFFSET	 0.000000	-0.001747	 0.077940
						CHANNELS 3 Zrotation Xrotation Yrotation
						End Site
						{
							OFFSET	 0.000000	-0.001747	 0.077940
						}
					}
				}
				JOINT RightShoulder
				{
					OFFSET	-0.080363	 0.000306	 0.159706
					CHANNELS 3 Zrotation Xrotation Yrotation
					JOINT RightArm
					{
						OFFSET	 0.000000	 0.000000	 0.164196
						CHANNELS 3 Zrotation Xrotation Yrotation
						JOINT RightForeArm
						{
							OFFSET	 0.000000	 0.000000	 0.365611
							CHANNELS 3 Zrotation Xrotation Yrotation
							JOINT RightHand
							{
								OFFSET	 0.000000	 0.000000	 0.360648
								CHANNELS 3 Zrotation Xrotation Yrotation
								JOINT RightHandIndex1
								{
									OFFSET	 0.000000	 0.000000	 0.069977
									CHANNELS 3 Zrotation Xrotation Yrotation
									JOINT RightHandIndex2
									{
										OFFSET	 0.000000	 0.000000	 0.052305
										CHANNELS 3 Zrotation Xrotation Yrotation
										JOINT RightHandIndex3
										{
											OFFSET	 0.009002	-0.000782	 0.042196
											CHANNELS 3 Zrotation Xrotation Yrotation
											End Site
											{
												OFFSET	 0.009002	-0.000782	 0.042196
											}
										}
									}
								}
							}
						}
					}
				}
			}
		}
	}
}
MOTION
Frames:    9
Frame Time: 0.03333334
 0.014187	 0.037730	 1.215355	 179.997800	 0.621023	-0.238039	-15.151090	-10.667530	-175.590400	-1.798929	-40.655390	-7.115677	-174.738200	 83.528220	 160.956600	-2.202733	 46.666730	-0.471363	 5.526267	-9.508963	 179.105300	 6.767056	-40.543130	 9.783892	-164.866700	 82.920910	 174.536800	 2.360445	 32.780590	 0.098142	 4.317276	 5.893131	 0.202790	 3.255088	 9.013874	 1.879378	-8.038296	-21.983030	-2.600464	-91.229220	 83.958340	 178.242500	 52.635800	 69.790230	-45.503140	 9.485167	-5.066231	-10.723490	 25.169080	-2.861444	-7.898110	-11.586870	 8.197168	-24.467080	-5.213937	-0.202400	 3.566957	-1.378229	 35.397820	-2.634230	-1.381182	 7.031710	 5.376265	-5.616786	-19.392210	-7.838377	 87.726840	 87.418890	-176.798800	-68.306700	 60.258790	 68.429450	-9.904263	-2.750403	 5.052007	-40.316540	-1.415571	 18.186220	-0.587981	 25.703390	-61.792760	 5.070519	-0.690904	-9.399550	-2.350882	 35.473990	 5.254307
 0.013807	 0.038573	 1.216656	-179.788400	 0.615679	-0.331990	-15.331240	-10.193360	-175.762600	-1.875618	-40.658070	-7.167076	-173.638400	 83.223270	 159.920500	-2.166365	 48.599240	-0.535943	 5.522534	-8.949013	 179.737500	 6.790065	-40.638670	 9.818161	-170.741200	 82.562460	-179.776500	 2.367744	 31.630160	 0.071777	 4.243526	 5.781946	 0.333984	 3.148360	 9.626181	 1.478730	-7.721418	-22.320850	-2.276514	-91.229180	 83.958370	 178.242500	 45.065140	 66.763840	-43.821940	 9.537298	-0.210831	-0.451136	 24.820570	-2.797912	-7.944296	-11.647170	 7.827837	-24.389430	-5.213937	-0.202400	 3.566957	-1.378229	 35.397820	-2.634230	-1.416666	 6.891677	 5.387561	-5.641089	-19.753600	-7.846953	 87.726910	 87.419040	-176.798900	-62.711360	 58.879830	 64.701950	-9.276395	-0.231533	 0.438016	-39.681920	-1.122150	 18.270870	-0.203639	 26.310040	-61.949550	 5.070519	-0.690904	-9.399550	-2.350882	 35.473990	 5.254307
 0.013844	 0.038304	 1.217034	-179.686400	 0.611002	-0.297392	-15.404410	-10.273960	-175.744600	-1.817905	-40.608290	-7.121539	-173.912500	 83.403760	 160.157000	-2.156296	 49.094340	-0.553180	 5.385529	-9.022527	 179.622800	 6.800057	-40.601380	 9.817627	-170.130300	 82.703570	 179.606800	 2.368408	 31.521100	 0.069297	 4.192099	 5.805730	 0.322094	 3.130891	 9.423287	 1.427317	-7.644953	-22.286900	-2.224393	-91.229320	 83.958340	 178.242600	 46.334120	 67.193170	-45.173390	 9.521760	-0.212474	-0.454876	 24.841800	-2.784465	-7.969839	-11.755310	 7.646160	-24.614850	-5.213937	-0.202400	 3.566957	-1.378229	 35.397820	-2.634230	-1.411994	 6.840595	 5.323709	-5.628416	-19.862420	-7.780462	 87.726890	 87.418890	-176.798800	-63.823190	 59.105680	 65.697680	-9.185363	-0.232678	 0.441777	-39.580990	-1.077408	 18.300180	-0.166085	 26.379170	-62.018410	 5.070519	-0.690904	-9.399550	-2.350882	 35.473990	 5.254307
 0.013865	 0.037930	 1.217399	-179.591100	 0.605672	-0.270692	-15.458510	-10.393360	-175.693600	-1.759755	-40.534480	-7.072366	-174.397000	 83.647320	 160.602900	-2.146588	 49.555810	-0.569549	 5.245921	-9.144845	 179.473400	 6.808950	-40.564710	 9.816442	-169.067100	 82.879770	 178.551000	 2.369009	 31.419440	 0.067004	 4.147846	 5.827384	 0.315840	 3.118128	 9.176242	 1.390408	-7.572758	-22.228250	-2.177283	-91.229160	 83.958340	 178.242500	 48.145370	 67.793120	-47.079660	 9.507209	-0.214481	-0.459464	 24.861470	-2.772102	-7.993699	-11.856620	 7.477350	-24.824990	-5.213937	-0.202400	 3.566957	-1.378229	 35.397820	-2.634230	-1.407700	 6.792969	 5.264203	-5.616242	-19.963930	-7.718404	 87.726820	 87.418890	-176.798800	-65.387580	 59.416270	 67.184690	-9.100104	-0.234813	 0.447465	-39.486640	-1.035734	 18.327250	-0.131029	 26.443530	-62.082710	 5.070519	-0.690904	-9.399550	-2.350882	 35.473990	 5.254307
 0.013882	 0.037429	 1.217796	-179.489400	 0.599463	-0.246539	-15.506220	-10.551600	-175.615100	-1.694126	-40.432070	-7.014286	-175.120200	 83.963230	 161.282200	-2.135949	 50.047110	-0.587255	 5.088192	-9.313220	 179.282600	 6.817220	-40.520580	 9.813368	-167.498600	 83.099080	 177.000000	 2.369651	 31.311210	 0.064556	 4.104799	 5.850811	 0.312934	 3.108326	 8.875317	 1.360200	-7.495298	-22.148110	-2.129024	-91.229260	 83.958340	 178.242600	 52.575710	 69.153630	-48.243290	 9.313970	-3.084229	-6.633206	 24.882240	-2.759213	-8.019107	-11.965030	 7.298222	-25.048770	-5.213937	-0.202400	 3.566957	-1.378229	 35.397820	-2.634230	-1.403165	 6.742286	 5.200845	-5.602848	-20.072040	-7.652219	 87.727040	 87.419040	-176.799000	-67.499910	 59.803050	 69.246470	-9.009912	-0.237253	 0.453868	-39.385940	-0.991409	 18.355740	-0.093596	 26.512000	-62.151210	 5.070519	-0.690904	-9.399550	-2.350882	 35.473990	 5.254307
 0.013903	 0.036878	 1.218182	-179.391200	 0.593439	-0.225386	-15.548230	-10.717960	-175.529300	-1.628739	-40.318710	-6.954967	-175.964500	 84.296100	 162.083100	-2.125354	 50.521250	-0.604657	 4.931063	-9.492505	 179.082600	 6.823726	-40.471620	 9.808143	-165.681600	 83.323530	 175.204900	 2.370260	 31.206780	 0.062200	 4.066917	 5.874578	 0.312120	 3.102278	 8.575146	 1.336835	-7.420459	-22.066210	-2.084598	-91.229390	 83.958310	 178.242700	 59.521000	 70.957980	-49.036450	 8.146585	-8.290318	-18.215030	 24.902260	-2.746889	-8.043734	-12.070180	 7.125918	-25.264790	-5.213937	-0.202400	 3.566957	-1.378229	 35.397820	-2.634230	-1.398855	 6.693386	 5.139698	-5.589575	-20.176440	-7.588258	 87.726780	 87.418960	-176.798800	-74.562850	 61.028550	 68.300650	-7.985564	-7.397687	 14.434960	-39.288590	-0.948670	 18.382990	-0.057401	 26.577980	-62.217400	 5.070519	-0.690904	-9.399550	-2.350882	 35.473990	 5.254307
 0.013953	 0.036170	 1.218645	-179.271300	 0.586763	-0.198716	-15.603480	-10.912840	-175.434100	-1.549045	-40.179350	-6.882749	-177.043700	 84.692640	 163.110900	-2.111943	 51.100090	-0.626341	 4.739668	-9.701659	 178.842000	 6.830364	-40.406050	 9.799701	-163.340100	 83.585460	 172.889400	 2.371003	 31.079290	 0.059325	 4.023977	 5.905626	 0.310635	 3.097823	 8.243209	 1.309981	-7.329411	-21.982370	-2.033236	-91.229070	 83.958340	 178.242400	 66.708790	 72.276490	-52.380080	 6.832143	-11.448700	-25.773250	 24.926530	-2.732135	-8.073790	-12.199260	 6.916308	-25.528590	-5.213937	-0.202400	 3.566957	-1.378229	 35.397820	-2.634230	-1.393658	 6.633643	 5.065044	-5.572865	-20.303920	-7.510033	 87.726650	 87.418960	-176.798600	-80.613120	 61.816660	 69.378810	-6.405968	-11.621570	 23.369520	-39.169430	-0.896582	 18.415890	-0.013092	 26.658440	-62.298320	 5.070519	-0.690904	-9.399550	-2.350882	 35.473990	 5.254307
 0.013813	 0.035526	 1.219027	-179.164200	 0.617326	-0.273614	-15.678680	-11.092570	-175.279600	-1.472220	-40.026440	-6.810771	-177.826500	 85.003700	 163.850400	-2.107166	 51.301070	-0.633983	 4.650460	-9.896591	 178.779100	 6.804685	-40.419350	 9.785008	-161.995600	 83.729640	 171.587500	 2.371884	 30.924630	 0.055852	 4.003273	 5.920942	 0.378120	 3.079767	 8.026467	 1.322931	-7.280642	-21.956030	-2.002958	-91.229270	 83.958370	 178.242600	 71.694760	 72.872760	-55.436290	 5.922628	-12.955080	-29.724600	 24.898030	-2.711200	-8.096154	-12.241410	 6.841728	-25.609390	-5.213937	-0.202400	 3.566957	-1.378229	 35.397820	-2.634230	-1.413664	 6.615520	 5.063296	-5.601708	-20.425340	-7.560832	 87.727110	 87.418890	-176.799100	-84.295610	 62.118260	 70.648680	-5.403123	-13.560020	 27.780970	-39.141070	-0.877321	 18.437900	-0.061933	 26.589760	-62.316040	 5.070519	-0.690904	-9.399550	-2.350882	 35.473990	 5.254307
 0.013718	 0.034988	 1.219362	-179.063400	 0.648467	-0.339689	-15.768180	-11.216690	-175.177800	-1.406303	-39.922600	-6.753060	-178.164300	 85.206010	 164.153700	-2.102794	 51.482740	-0.640947	 4.580832	-10.024610	 178.768500	 6.782007	-40.444140	 9.774589	-161.377200	 83.814510	 170.995500	 2.372714	 30.777590	 0.052551	 3.980731	 5.936310	 0.437772	 3.058737	 7.930924	 1.324620	-7.235816	-21.982750	-1.975423	-91.229340	 83.958370	 178.242600	 74.521570	 73.074990	-57.399510	 5.416802	-13.623350	-31.624430	 24.870050	-2.691380	-8.117052	-12.279390	 6.774255	-25.681740	-5.213937	-0.202400	 3.566957	-1.378229	 35.397820	-2.634230	-1.433173	 6.599342	 5.063278	-5.630078	-20.540200	-7.612081	 87.727010	 87.419040	-176.799000	-86.285420	 62.211110	 71.473850	-4.853327	-14.441000	 29.904470	-39.116270	-0.860034	 18.458530	-0.110269	 26.521390	-62.331440	 5.070519	-0.690904	-9.399550	-2.350882	 35.473990	 5.254307
